<?xml version="1.0" encoding="UTF-8"?>
<svg id="_Слой_1" data-name="Слой_1" xmlns="http://www.w3.org/2000/svg" version="1.1" viewBox="0 0 714 172.7">
  <!-- Generator: Adobe Illustrator 29.1.0, SVG Export Plug-In . SVG Version: 2.1.0 Build 142)  -->
  <defs>
    <style>
      .st0, .st1, .st2, .st3, .st4, .st5 {
        fill: none;
        stroke: #ededed;
        stroke-miterlimit: 10;
      }

      .st0, .st2, .st5 {
        stroke-width: 1px;
      }

      .st6, .st7 {
        fill-rule: evenodd;
      }

      .st6, .st8 {
        fill: #f7941d;
      }

      .st1 {
        stroke-dasharray: 10 10;
      }

      .st9 {
        fill: #4d4d4f;
      }

      .st7 {
        fill: #4d4d4d;
      }

      .st10 {
        fill: #f68b1f;
      }

      .st2 {
        stroke-dasharray: 7.8 7.8;
      }

      .st11 {
        fill: #ededed;
      }

      .st12 {
        display: none;
      }

      .st4 {
        stroke-dasharray: 10.2 10.2;
      }

      .st5 {
        stroke-dasharray: 8 8;
      }
    </style>
  </defs>
  <g class="st12">
    <g>
      <polyline class="st0" points="648.8 160.3 648.8 164.3 644.8 164.3"/>
      <line class="st5" x1="636.8" y1="164.3" x2="497.6" y2="164.3"/>
      <polyline class="st0" points="493.6 164.3 489.6 164.3 489.6 160.3"/>
      <line class="st2" x1="489.6" y1="152.5" x2="489.6" y2="16.2"/>
      <polyline class="st0" points="489.6 12.3 489.6 8.3 493.6 8.3"/>
      <line class="st5" x1="501.5" y1="8.3" x2="640.8" y2="8.3"/>
      <polyline class="st0" points="644.8 8.3 648.8 8.3 648.8 12.3"/>
      <line class="st2" x1="648.8" y1="20.1" x2="648.8" y2="156.4"/>
    </g>
    <g>
      <polyline class="st3" points="453.3 131.3 453.3 136.3 448.3 136.3"/>
      <line class="st4" x1="438.1" y1="136.3" x2="75.4" y2="136.3"/>
      <polyline class="st3" points="70.3 136.3 65.3 136.3 65.3 131.3"/>
      <line class="st1" x1="65.3" y1="121.3" x2="65.3" y2="46.3"/>
      <polyline class="st3" points="65.3 41.3 65.3 36.3 70.3 36.3"/>
      <line class="st4" x1="80.5" y1="36.3" x2="443.2" y2="36.3"/>
      <polyline class="st3" points="448.3 36.3 453.3 36.3 453.3 41.3"/>
      <line class="st1" x1="453.3" y1="51.3" x2="453.3" y2="126.3"/>
    </g>
    <path class="st11" d="M65.3,101.6v.9c-4.9,0-8.6-.9-11.1-2.7-2.6-2-4.2-5.2-4.8-9.6-.7-5.1-1.5-8.8-2.6-11.1-1.7-3.6-4.6-6.5-8.3-8-2.9-1.2-6-1.8-9.1-1.7h-1.4v1.3c8,3.7,11.9,8.9,11.9,15.5s-1.8,10.1-5.4,13.4c-3.6,3.3-8.4,4.9-14.5,4.9-5.9,0-10.7-1.7-14.4-5.1C1.9,96-.2,91.2,0,86.2c0-2,.4-3.9,1.1-5.7,1.6-4.7,5.7-8.1,12.3-10.4,4.5-1.4,9.1-2,13.8-1.9,13,0,21.8,2.2,26.4,6.7,2,2.1,3.3,4.8,3.6,7.7.8,5.7,1.3,8.9,1.5,9.7.9,4.6,2.2,7.4,3.8,8.4.9.6,1.9.9,2.9.9h0ZM26.3,77.3h-11c-4.5,0-7.7.5-9.6,1.4-2.8,1.3-4.1,3.9-4.1,7.7,0,3.7,1.6,6.2,4.7,7.6,2.2,1,5.5,1.5,9.8,1.6h10.3c2.9.1,5.8-.6,8.4-2.1,3.2-2.2,4.4-6.2,3-9.8-1.6-4.2-5.4-6.3-11.4-6.3h0Z"/>
    <path class="st11" d="M486.7,53.7h.9c0,4.9-.9,8.6-2.7,11.1-2,2.6-5.2,4.2-9.6,4.8-5.1.7-8.8,1.5-11.1,2.6-3.6,1.7-6.5,4.6-8,8.3-1.2,2.9-1.8,6-1.7,9.1v1.4s1.3,0,1.3,0c3.7-8,8.9-11.9,15.5-11.9s10.1,1.8,13.4,5.4c3.3,3.6,4.9,8.4,4.9,14.5,0,5.9-1.7,10.7-5.1,14.4-3.4,3.7-8.2,5.8-13.2,5.6-2,0-3.9-.4-5.7-1.1-4.7-1.6-8.1-5.7-10.4-12.3-1.4-4.5-2-9.1-1.9-13.8,0-13,2.2-21.8,6.7-26.4,2.1-2,4.8-3.3,7.7-3.6,5.7-.8,8.9-1.3,9.7-1.5,4.6-.9,7.4-2.2,8.4-3.8.6-.9.9-1.9.9-2.9h0ZM462.4,92.7v11c0,4.5.5,7.7,1.4,9.6,1.3,2.8,3.9,4.1,7.7,4.1,3.7,0,6.2-1.6,7.6-4.7,1-2.2,1.5-5.5,1.6-9.8v-10.3c.1-2.9-.6-5.8-2.1-8.4-2.2-3.2-6.2-4.4-9.8-3-4.2,1.6-6.3,5.4-6.3,11.4h0Z"/>
    <path class="st11" d="M291.9,169.7v.9c-4.9,0-8.6-.9-11.1-2.7-2.6-2-4.2-5.2-4.8-9.6-.7-5.1-1.5-8.8-2.6-11.1-1.7-3.6-4.6-6.5-8.3-8-2.9-1.2-6-1.8-9.1-1.7h-1.4v1.3c8,3.7,11.9,8.9,11.9,15.5s-1.8,10.1-5.4,13.4c-3.6,3.3-8.4,4.9-14.5,4.9-5.9,0-10.7-1.7-14.4-5.1-3.7-3.4-5.8-8.2-5.6-13.2,0-2,.4-3.9,1.1-5.7,1.6-4.7,5.7-8.1,12.3-10.4,4.5-1.4,9.1-2,13.8-1.9,13,0,21.8,2.2,26.4,6.7,2,2.1,3.3,4.8,3.6,7.7.8,5.7,1.3,8.9,1.5,9.7.9,4.6,2.2,7.4,3.8,8.4.9.6,1.9.9,2.9.9h0ZM252.9,145.4h-11c-4.5,0-7.7.5-9.6,1.4-2.8,1.3-4.1,3.9-4.1,7.7,0,3.7,1.6,6.2,4.7,7.6,2.2,1,5.5,1.5,9.8,1.6h10.3c2.9.1,5.8-.6,8.4-2.1,3.2-2.2,4.4-6.2,3-9.8-1.6-4.2-5.4-6.3-11.4-6.3h0Z"/>
    <path class="st11" d="M291.9,33.4v.9c-4.9,0-8.6-.9-11.1-2.7-2.6-2-4.2-5.2-4.8-9.6-.7-5.1-1.5-8.8-2.6-11.1-1.7-3.6-4.6-6.5-8.3-8-2.9-1.2-6-1.8-9.1-1.7h-1.4v1.3c8,3.7,11.9,8.9,11.9,15.5s-1.8,10.1-5.4,13.4c-3.6,3.3-8.4,4.9-14.5,4.9-5.9,0-10.7-1.7-14.4-5.1-3.7-3.4-5.8-8.2-5.6-13.2,0-2,.4-3.9,1.1-5.7,1.6-4.7,5.7-8.1,12.3-10.4,4.5-1.4,9.1-2,13.8-1.9,13,0,21.8,2.2,26.4,6.7,2,2.1,3.3,4.8,3.6,7.7.8,5.7,1.3,8.9,1.5,9.7.9,4.6,2.2,7.4,3.8,8.4.9.6,1.9.9,2.9.9h0ZM252.9,9.1h-11c-4.5,0-7.7.5-9.6,1.4-2.8,1.3-4.1,3.9-4.1,7.7,0,3.7,1.6,6.2,4.7,7.6,2.2,1,5.5,1.5,9.8,1.6h10.3c2.9.1,5.8-.6,8.4-2.1,3.2-2.2,4.4-6.2,3-9.8-1.6-4.2-5.4-6.3-11.4-6.3h0Z"/>
    <path class="st11" d="M592.7.2c.2,0,.4.2.4.4v7.2c0,.2-.2.4-.4.4h-1.5c-.2,0-.4-.2-.4-.4V2.3h-2c0,.6,0,1.2,0,1.8,0,.6,0,1.3-.2,1.9,0,.5-.2.9-.4,1.2-.2.3-.4.5-.6.7-.2.2-.5.3-.8.3-.3,0-.6,0-.9,0h-.2c-.2,0-.4-.2-.4-.4v-1.2c0-.2.2-.4.4-.5,0,0,.2,0,.2-.1.2-.1.3-.3.4-.6.1-.2.2-.5.2-.8,0-.3,0-.6.1-1,0-.3,0-.6,0-.9,0-.3,0-.7,0-1,0-.3,0-.6,0-.8v-.2c0-.2.2-.4.4-.4h5.6ZM597.8,6.4c.3,0,.6,0,.8-.2.1,0,.2-.1.3-.2.1-.1.3-.2.4-.2h1.6c.3,0,.5.3.4.5,0,.2-.2.5-.3.7-.2.3-.5.6-.8.8-.3.2-.7.4-1.1.5-.4,0-.8.1-1.2.1-1.3,0-2.2-.4-2.9-1.1-.7-.7-1-1.8-1-3.1s0-1.1.3-1.7c.2-.5.5-1,.8-1.3.3-.4.8-.7,1.2-.9.5-.2,1-.3,1.7-.3s1.2,0,1.6.3c.5.2.9.5,1.2.8.3.4.6.8.7,1.3.2.5.3,1,.3,1.6s0,.3,0,.5c0,0,0,0,0,.1,0,.2-.2.4-.4.4h-4.9c0,.4.2.7.4,1,.3.3.7.4,1.2.4ZM599.3,3.3c0-.4-.1-.7-.4-.9-.3-.2-.6-.4-1.1-.4s-.9.1-1.1.4c-.3.3-.4.6-.4.9h3.1ZM601.9,2.3c-.2,0-.4-.2-.4-.4V.6c0-.2.2-.4.4-.4h6.6c.2,0,.4.2.4.4v1.3c0,.2-.2.4-.4.4h-2.1v5.5c0,.2-.2.4-.4.4h-1.5c-.2,0-.4-.2-.4-.4V2.3h-2.1Z"/>
    <path class="st11" d="M592.7,164.5c.2,0,.4.2.4.4v7.2c0,.2-.2.4-.4.4h-1.5c-.2,0-.4-.2-.4-.4v-5.5h-2c0,.6,0,1.2,0,1.8,0,.6,0,1.3-.2,1.9,0,.5-.2.9-.4,1.2-.2.3-.4.5-.6.7-.2.2-.5.3-.8.3-.3,0-.6,0-.9,0h-.2c-.2,0-.4-.2-.4-.4v-1.2c0-.2.2-.4.4-.5,0,0,.2,0,.2-.1.2-.1.3-.3.4-.6.1-.2.2-.5.2-.8,0-.3,0-.6.1-1,0-.3,0-.6,0-.9,0-.3,0-.7,0-1,0-.3,0-.6,0-.8v-.2c0-.2.2-.4.4-.4h5.6ZM597.8,170.7c.3,0,.6,0,.8-.2.1,0,.2-.1.3-.2.1-.1.3-.2.4-.2h1.6c.3,0,.5.3.4.5,0,.2-.2.5-.3.7-.2.3-.5.6-.8.8-.3.2-.7.4-1.1.5-.4,0-.8.1-1.2.1-1.3,0-2.2-.4-2.9-1.1-.7-.7-1-1.8-1-3.1s0-1.1.3-1.7c.2-.5.5-1,.8-1.3.3-.4.8-.7,1.2-.9.5-.2,1-.3,1.7-.3s1.2,0,1.6.3c.5.2.9.5,1.2.8.3.4.6.8.7,1.3.2.5.3,1,.3,1.6s0,.3,0,.5c0,0,0,0,0,.1,0,.2-.2.4-.4.4h-4.9c0,.4.2.7.4,1,.3.3.7.4,1.2.4ZM599.3,167.7c0-.4-.1-.7-.4-.9-.3-.2-.6-.4-1.1-.4s-.9.1-1.1.4c-.3.3-.4.6-.4.9h3.1ZM601.9,166.7c-.2,0-.4-.2-.4-.4v-1.3c0-.2.2-.4.4-.4h6.6c.2,0,.4.2.4.4v1.3c0,.2-.2.4-.4.4h-2.1v5.5c0,.2-.2.4-.4.4h-1.5c-.2,0-.4-.2-.4-.4v-5.5h-2.1Z"/>
    <path class="st11" d="M714,101.6v.9c-4.9,0-8.6-.9-11.1-2.7-2.6-2-4.2-5.2-4.8-9.6-.7-5.1-1.5-8.8-2.6-11.1-1.7-3.6-4.6-6.5-8.3-8-2.9-1.2-6-1.8-9.1-1.7h-1.4v1.3c8,3.7,11.9,8.9,11.9,15.5s-1.8,10.1-5.4,13.4c-3.6,3.3-8.4,4.9-14.5,4.9-5.9,0-10.7-1.7-14.4-5.1-3.7-3.4-5.8-8.2-5.6-13.2,0-2,.4-3.9,1.1-5.7,1.6-4.7,5.7-8.1,12.3-10.4,4.5-1.4,9.1-2,13.8-1.9,13,0,21.8,2.2,26.4,6.7,2,2.1,3.3,4.8,3.6,7.7.8,5.7,1.3,8.9,1.5,9.7.9,4.6,2.2,7.4,3.8,8.4.9.6,1.9.9,2.9.9h0ZM675,77.3h-11c-4.5,0-7.7.5-9.6,1.4-2.8,1.3-4.1,3.9-4.1,7.7,0,3.7,1.6,6.2,4.7,7.6,2.2,1,5.5,1.5,9.8,1.6h10.3c2.9.1,5.8-.6,8.4-2.1,3.2-2.2,4.4-6.2,3-9.8-1.6-4.2-5.4-6.3-11.4-6.3h0Z"/>
  </g>
  <g>
    <g>
      <path class="st10" d="M229.3,109.9v-54.8h-6.6v-1.7h41.8v18.8h-1.6c0-5.5-.9-9.6-2.7-12.3-2.2-3.2-5.7-4.8-10.6-4.8h-11.2v54.8h7.4v1.7h-23v-1.7h6.6Z"/>
      <path class="st10" d="M267.7,53.4h23v1.7h-7.2l17,37.5,10.8-28.5c.7-1.7,1.1-3.5,1.2-5.3,0-2.5-1.9-3.7-5.8-3.7v-1.7h14.8v1.7c-2.1,0-3.6.4-4.6,1.3-1.2,1.3-2.2,2.9-2.7,4.6l-14.6,38c-3.5,9.1-7.8,13.7-13,13.7-2.8,0-5.5-.9-7.7-2.7-2.3-1.8-3.7-4.6-3.7-7.5,0-3.6,1.7-5.4,5.2-5.4s3.8,1.5,3.8,4.5c0,1.2-.6,2.4-1.5,3.3-.8.8-1.3,1.8-1.5,2.9.2.9.7,1.7,1.4,2.2,1,.9,2.3,1.3,3.5,1.2,3.5,0,6.6-2.5,9.3-7.6l-21.8-48.3h-6v-1.7Z"/>
      <path class="st10" d="M345,109.9v-54.8c-12.2,0-18.3,5.6-18.3,16.7h-1.6v-18.4h49v18.4h-1.6c0-11.1-6.1-16.7-18.2-16.7v54.8h7.3v1.7h-23.7v-1.7h7.3Z"/>
      <path class="st10" d="M434.1,136.3c11.5-12.9,19.2-33.5,19.2-49.2s-3.1-30.2-19.2-50.8l-2,1c9.5,16.3,10.9,30.4,10.9,49.8s.2,32.5-10.7,48l1.8,1.2Z"/>
      <path class="st10" d="M408.1,128.5c9.7-10.9,16.2-28.2,16.2-41.5s-2.7-25.5-16.2-42.8l-1.7.8c8,13.8,9.2,25.7,9.2,42s.2,27.4-9.1,40.5l1.6,1Z"/>
      <path class="st10" d="M385.4,120.7c7.9-8.8,13.2-23,13.2-33.8s-2.2-20.8-13.2-34.9l-1.4.7c6.5,11.2,7.5,20.9,7.5,34.2s.1,22.3-7.4,33l1.3.8Z"/>
    </g>
    <path class="st9" d="M106.6,92.3h1.5l-.8,19.4h-1.5c0-2.4-1-3.6-3.1-3.6-.6,0-2.3.8-5.2,2.3-2.9,1.5-6,2.3-9.3,2.3-4.6,0-9.1-1.6-12.7-4.6-3.8-3-6.6-6.9-8.4-11.3-1.3-3.3-2-7.8-2-13.3,0-4.7.6-9.4,2.2-13.8,1.7-4.9,4.8-9.3,8.8-12.5,3.9-3.1,8.8-4.7,13.7-4.6,2.4,0,4.7.4,6.9,1.4,1.4.7,2.9,1.2,4.5,1.4,1.7.2,3.3-1,3.6-2.7h1.6v18.9h-.8c-1.1-11.6-6.2-17.3-15.3-17.3-1.8,0-3.6.4-5.3,1.1-6.5,2.7-9.8,9.9-9.8,21.6v14.6c-.1,4,.7,7.9,2.3,11.6,1.5,3.5,4.5,6.2,8.1,7.4,1.4.5,3,.8,4.5.8,4.5,0,8.2-2,11.2-6,2.6-3.8,4.4-8.2,5.1-12.8h0Z"/>
    <path class="st9" d="M128.5,55.1v54.8h6v1.7h-21.6v-1.7h6.6v-54.8h-6.6v-1.7h57.1v1.7h-6.7v54.8h6.6v1.7h-21.6v-1.7h5.9v-54.8h-25.7Z"/>
    <path class="st9" d="M205.3,47.4h.9c0,4.9-.9,8.6-2.7,11.1-2,2.6-5.2,4.2-9.6,4.8-5.1.7-8.8,1.5-11.1,2.6-3.6,1.7-6.5,4.6-8,8.3-1.2,2.9-1.8,6-1.7,9.1v1.4h1.3c3.7-8,8.9-11.9,15.5-11.9s10.1,1.8,13.4,5.4c3.3,3.6,4.9,8.4,4.9,14.5,0,5.9-1.7,10.7-5.1,14.4-3.4,3.7-8.2,5.8-13.2,5.6-2,0-3.9-.4-5.7-1.1-4.7-1.6-8.1-5.7-10.4-12.3-1.4-4.5-2-9.1-1.9-13.8,0-13,2.2-21.8,6.7-26.4,2.1-2,4.8-3.3,7.7-3.6,5.7-.8,8.9-1.3,9.7-1.5,4.6-.9,7.4-2.2,8.4-3.8.6-.9.9-1.9.9-2.9h0ZM181,86.4v11c0,4.5.5,7.7,1.4,9.6,1.3,2.8,3.9,4.1,7.7,4.1,3.7,0,6.2-1.6,7.6-4.7,1-2.2,1.5-5.5,1.6-9.8v-10.3c.1-2.9-.6-5.8-2.1-8.4-2.2-3.2-6.2-4.4-9.8-3-4.2,1.6-6.3,5.4-6.3,11.4h0Z"/>
  </g>
  <g>
    <path class="st7" d="M626.9,55.3c.6-.2,1.2.2,1.4.8,4.9,17.8-1.6,39.9-18,56.3-22.4,22.4-55.3,26.3-73.6,8-18.3-18.3-14.4-51.3,8-73.6,16.4-16.4,38.3-22.8,56.1-18,.6.2,1,.8.8,1.4-.2.6-.8,1-1.4.8-16.9-4.6-38,1.5-53.9,17.4-21.8,21.8-25.1,53.3-8,70.4,17.1,17.1,48.6,13.8,70.4-8,15.9-15.9,22-37.2,17.4-54.1-.2-.6.2-1.2.8-1.4Z"/>
    <path class="st7" d="M605.8,21.6c-.2.6-.8.9-1.4.7-21.5-6.7-49,.8-69.5,21.3-27.4,27.4-31.5,66.9-10,88.4,6.1,6.1,13.7,10.2,22,12.2.6.1,1,.8.8,1.4-.1.6-.8,1-1.4.8-8.7-2.1-16.7-6.3-23.1-12.8-22.7-22.7-17.9-63.7,10-91.6,21-21,49.3-28.9,71.8-21.9.6.2.9.8.7,1.4ZM635.6,51.5c.6-.2,1.2.2,1.4.8,6.8,22.4-1.1,50.5-22,71.4-12.9,12.9-28.4,20.8-43.7,23.4-.6.1-1.2-.3-1.3-.9-.1-.6.3-1.2.9-1.3,14.8-2.5,30-10.2,42.5-22.8,20.4-20.4,27.9-47.7,21.4-69.2-.2-.6.2-1.2.8-1.4Z"/>
    <path class="st7" d="M643.8,46.8c.6-.2,1.2.1,1.4.7,9.3,27.1,0,61.9-25.7,87.6-33.4,33.4-82.5,39.1-109.6,12-16.7-16.7-20.9-41.7-14-66.2.2-.6.8-1,1.4-.8.6.2,1,.8.8,1.4-6.8,23.9-2.5,48,13.4,64,25.9,25.9,73.6,20.9,106.4-12,25.2-25.2,34.1-59.2,25.1-85.3-.2-.6.1-1.2.7-1.4ZM610,13.2c-.2.6-.8.9-1.4.7-26.1-8.8-59.9,0-85,25.2-7.6,7.6-13.6,15.9-18.2,24.6-.3.6-1,.8-1.5.5-.6-.3-.8-1-.5-1.5,4.7-8.9,10.9-17.4,18.6-25.1,25.6-25.6,60.3-34.9,87.4-25.7.6.2.9.8.7,1.4Z"/>
    <path class="st8" d="M587.3,99.5c.2,0,.4.2.4.4v7.2c0,.2-.2.4-.4.4h-1.5c-.2,0-.4-.2-.4-.4v-5.5h-2c0,.6,0,1.2,0,1.8,0,.6,0,1.3-.2,1.9,0,.5-.2.9-.4,1.2-.2.3-.4.5-.6.7-.2.2-.5.3-.8.3-.3,0-.6,0-.9,0h-.2c-.2,0-.4-.2-.4-.4v-1.2c0-.2.2-.4.4-.5,0,0,.2,0,.2-.1.2-.1.3-.3.4-.6.1-.2.2-.5.2-.8,0-.3,0-.6.1-1,0-.3,0-.6,0-.9,0-.3,0-.7,0-1,0-.3,0-.6,0-.8v-.2c0-.2.2-.4.4-.4h5.6ZM592.4,105.7c.3,0,.6,0,.8-.2.1,0,.2-.1.3-.2.1-.1.3-.2.4-.2h1.6c.3,0,.5.3.4.5,0,.2-.2.5-.3.7-.2.3-.5.6-.8.8-.3.2-.7.4-1.1.5-.4,0-.8.1-1.2.1-1.3,0-2.2-.4-2.9-1.1-.7-.7-1-1.8-1-3.1s0-1.1.3-1.7c.2-.5.5-1,.8-1.3.3-.4.8-.7,1.2-.9.5-.2,1-.3,1.7-.3s1.2,0,1.6.3c.5.2.9.5,1.2.8.3.4.6.8.7,1.3.2.5.3,1,.3,1.6s0,.3,0,.5c0,0,0,0,0,.1,0,.2-.2.4-.4.4h-4.9c0,.4.2.7.4,1,.3.3.7.4,1.2.4ZM593.9,102.6c0-.4-.1-.7-.4-.9-.3-.2-.6-.4-1.1-.4s-.9.1-1.1.4c-.3.3-.4.6-.4.9h3.1ZM596.5,101.6c-.2,0-.4-.2-.4-.4v-1.3c0-.2.2-.4.4-.4h6.6c.2,0,.4.2.4.4v1.3c0,.2-.2.4-.4.4h-2.1v5.5c0,.2-.2.4-.4.4h-1.5c-.2,0-.4-.2-.4-.4v-5.5h-2.1Z"/>
    <path class="st8" d="M553.5,94.8c.6,0,1,.4,1.3.9.4.6.9,1.1,1.7,1.5,1.1.5,2.4.8,3.9.8s2.7-.3,3.7-.9c1-.6,1.8-1.4,2.4-2.3.6-.9,1-1.9,1.3-3,.3-1.1.4-2.2.3-3.2-.8.9-1.6,1.6-2.5,2.1-.9.5-1.8,1-2.7,1.3-.9.3-1.7.5-2.6.6-.8,0-1.5.1-2.1.1-2.1,0-4.1-.3-5.9-.9-1.8-.7-3.3-1.6-4.5-2.8-1.3-1.2-2.2-2.7-2.9-4.4-.7-1.8-1.1-3.8-1.1-6s.5-4.9,1.4-6.9c1-2,2.2-3.6,3.8-4.8,1.6-1.3,3.4-2.3,5.5-2.9,2-.7,4.2-1,6.3-1,3.3,0,6,.6,8.3,1.9,2.3,1.3,4.1,2.9,5.5,5,1.4,2,2.4,4.4,2.9,7.1.6,2.7.9,5.4.9,8.2s-.3,6.1-1,8.9c-.6,2.8-1.7,5.3-3.1,7.4-1.5,2.1-3.4,3.8-5.7,5-2.3,1.2-5.1,1.8-8.5,1.8s-4.1-.3-6-.8c-1.8-.5-3.5-1.4-4.9-2.4-1.4-1.1-2.6-2.5-3.6-4.3-.7-1.4-1.3-2.9-1.6-4.7-.1-.7.5-1.4,1.2-1.4h8.3ZM554.9,78.4c0,.6.1,1.3.3,1.9.3.6.6,1.2,1.1,1.7.5.5,1,.9,1.8,1.2.7.3,1.5.4,2.5.4s2-.2,2.7-.6c.8-.4,1.3-.8,1.8-1.3.4-.5.7-1.1.9-1.8.2-.6.3-1.2.3-1.7,0-.8-.3-1.6-.6-2.3-.3-.7-.8-1.3-1.3-1.7-.5-.4-1.1-.7-1.8-.8-.6-.2-1.2-.3-1.8-.3-1,0-1.8.1-2.6.4-.7.3-1.3.7-1.8,1.2-.5.5-.8,1.1-1.1,1.7-.2.6-.3,1.2-.3,1.8Z"/>
    <path class="st8" d="M576.3,75c-.7,0-1.3-.6-1.3-1.3v-23.6c0-.7.6-1.3,1.3-1.3h28.4c.7,0,1.3.6,1.3,1.3v7.8c0,.7-.6,1.3-1.3,1.3h-18.9v5.7c1.4-.8,2.9-1.4,4.4-1.6,1.6-.3,3-.4,4-.3,2.5.1,4.6.6,6.3,1.4,1.7.8,3.1,1.9,4.2,3.4,1.9,2.5,2.8,5.7,2.8,9.8s-.4,4.9-1.3,6.9c-.9,2-2.1,3.7-3.6,5.1-1.5,1.3-3.3,2.4-5.3,3.1-2,.7-4.2,1-6.6,1s-4.4-.3-6.4-.9c-1.9-.6-3.6-1.5-5.1-2.7-1.5-1.3-2.7-2.8-3.6-4.7-.8-1.6-1.3-3.4-1.6-5.4-.1-.7.5-1.4,1.2-1.4h8.6c.6,0,1.1.4,1.3,1,0,.2.1.3.2.5.3.5.6,1,1.1,1.4.5.4,1.1.8,1.8,1.1.7.3,1.4.4,2.3.4s1.9-.1,2.6-.4c.8-.3,1.3-.7,1.8-1.1.4-.5.7-1,.9-1.6.2-.6.3-1.3.3-1.9,0-1.3-.5-2.5-1.4-3.5-.9-1.1-2.3-1.6-4.1-1.6s-2.5.2-3.5.6c-.9.3-1.8.8-2.7,1.4-.2.1-.4.2-.7.2h-7.3Z"/>
    <path class="st8" d="M633.8,23.2s0,0,0,0c-5-4.7-11.4-7.6-18.1-8.3-.3,0-.6.2-.7.4v.4c-.3.4,0,.8.3.9,6.4,1.8,10.3,4.9,15.2,9.9.5.5,2.5,2.5,4.6,5.3,2.1,2.8,4.2,6.2,4.9,9.4,0,.4.4.6.8.5h.4c.3-.1.6-.5.5-.8-.6-6.6-3.4-12.8-7.9-17.7Z"/>
    <path class="st8" d="M626.5,30.7s0,0,0,0c-4.2-4-9.6-6.4-15.3-7-.3,0-.6.2-.7.5v.3c-.2.4,0,.8.4.9,5.4,1.5,8.6,4.2,12.8,8.3.4.4,2.1,2.1,3.9,4.4,1.8,2.3,3.5,5.2,4.1,7.9,0,.3.4.6.8.5h.3c.4,0,.6-.4.6-.8-.5-5.6-2.9-10.8-6.7-14.9Z"/>
    <path class="st6" d="M619.8,37.2s0,0,0,0c-3.4-3.2-7.8-5.2-12.5-5.7-.3,0-.6.2-.7.5h0c-.1.5,0,.9.5,1,4,1.2,7.6,3.5,10.3,6.7,0,0,0,0,0,0,.3.3,1.7,1.7,3.1,3.6,1.4,1.9,2.9,4.2,3.3,6.4,0,.4.4.6.8.5h0c.3,0,.6-.4.5-.7-.4-4.5-2.4-8.8-5.5-12.2ZM607.1,32.4h0Z"/>
    <path class="st8" d="M495.6,62c0-.9,1.1-1.4,1.6-.6l4.1,5.9c.2.3.5.4.8.4l7.2-.6c.9,0,1.4,1.1.6,1.6l-5.9,4.1c-.3.2-.4.5-.4.8l.6,7.2c0,.9-1.1,1.4-1.6.6l-4.1-5.9c-.2-.3-.5-.4-.8-.4l-7.2.6c-.9,0-1.4-1.1-.6-1.6l5.9-4.1c.3-.2.4-.5.4-.8l-.6-7.2Z"/>
    <path class="st8" d="M560.1,138.6c.3-.6,1.3-.4,1.3.3v5.4c0,.2.1.5.3.6l4.7,2.7c.6.3.4,1.3-.3,1.3h-5.4c-.2,0-.5.1-.6.3l-2.7,4.7c-.3.6-1.3.4-1.3-.3v-5.4c0-.2-.1-.5-.3-.6l-4.7-2.7c-.6-.3-.4-1.3.3-1.3h5.4c.2,0,.5-.1.6-.3l2.7-4.7Z"/>
  </g>
</svg>